<mxfile host="app.diagrams.net" agent="Mozilla/5.0 (Windows NT 10.0; Win64; x64) AppleWebKit/537.36 (KHTML, like Gecko) Chrome/141.0.0.0 Safari/537.36 Edg/141.0.0.0" version="28.2.5">
  <diagram name="Page-1" id="KkPtF0GZh90t2EMxde_D">
    <mxGraphModel dx="1034" dy="666" grid="1" gridSize="10" guides="1" tooltips="1" connect="1" arrows="1" fold="1" page="1" pageScale="1" pageWidth="850" pageHeight="1100" math="0" shadow="0">
      <root>
        <mxCell id="0" />
        <mxCell id="1" parent="0" />
        <mxCell id="bPUMAeDiA9uqkLYjejyI-1" value="&#xa;  &#xa;    &#xa;      &#xa;        &#xa;        &#xa;&#xa;        &#xa;        &#xa;          &#xa;        &#xa;&#xa;        &#xa;        &#xa;          &#xa;        &#xa;&#xa;        &#xa;        &#xa;          &#xa;        &#xa;&#xa;        &#xa;        &#xa;          &#xa;        &#xa;&#xa;        &#xa;        &#xa;          &#xa;        &#xa;&#xa;        &#xa;        &#xa;          &#xa;        &#xa;&#xa;        &#xa;        &#xa;          &#xa;        &#xa;        &#xa;          &#xa;        &#xa;        &#xa;          &#xa;        &#xa;        &#xa;          &#xa;        &#xa;        &#xa;          &#xa;        &#xa;        &#xa;          &#xa;        &#xa;        &#xa;          &#xa;        &#xa;&#xa;      &#xa;    &#xa;  &#xa;" style="text;whiteSpace=wrap;html=1;" vertex="1" parent="1">
          <mxGeometry x="10" y="40" width="30" height="930" as="geometry" />
        </mxCell>
        <mxCell id="bPUMAeDiA9uqkLYjejyI-21" value="Users" style="swimlane;fontStyle=0;childLayout=stackLayout;horizontal=1;startSize=26;fillColor=none;horizontalStack=0;resizeParent=1;resizeParentMax=0;resizeLast=0;collapsible=1;marginBottom=0;whiteSpace=wrap;html=1;" vertex="1" parent="1">
          <mxGeometry x="120" y="220" width="140" height="174" as="geometry" />
        </mxCell>
        <mxCell id="bPUMAeDiA9uqkLYjejyI-22" value="id(PK)" style="text;strokeColor=none;fillColor=none;align=left;verticalAlign=top;spacingLeft=4;spacingRight=4;overflow=hidden;rotatable=0;points=[[0,0.5],[1,0.5]];portConstraint=eastwest;whiteSpace=wrap;html=1;" vertex="1" parent="bPUMAeDiA9uqkLYjejyI-21">
          <mxGeometry y="26" width="140" height="26" as="geometry" />
        </mxCell>
        <mxCell id="bPUMAeDiA9uqkLYjejyI-23" value="username" style="text;strokeColor=none;fillColor=none;align=left;verticalAlign=top;spacingLeft=4;spacingRight=4;overflow=hidden;rotatable=0;points=[[0,0.5],[1,0.5]];portConstraint=eastwest;whiteSpace=wrap;html=1;" vertex="1" parent="bPUMAeDiA9uqkLYjejyI-21">
          <mxGeometry y="52" width="140" height="26" as="geometry" />
        </mxCell>
        <mxCell id="bPUMAeDiA9uqkLYjejyI-24" value="email" style="text;strokeColor=none;fillColor=none;align=left;verticalAlign=top;spacingLeft=4;spacingRight=4;overflow=hidden;rotatable=0;points=[[0,0.5],[1,0.5]];portConstraint=eastwest;whiteSpace=wrap;html=1;" vertex="1" parent="bPUMAeDiA9uqkLYjejyI-21">
          <mxGeometry y="78" width="140" height="32" as="geometry" />
        </mxCell>
        <mxCell id="bPUMAeDiA9uqkLYjejyI-27" value="password_hash" style="text;strokeColor=none;fillColor=none;align=left;verticalAlign=top;spacingLeft=4;spacingRight=4;overflow=hidden;rotatable=0;points=[[0,0.5],[1,0.5]];portConstraint=eastwest;whiteSpace=wrap;html=1;" vertex="1" parent="bPUMAeDiA9uqkLYjejyI-21">
          <mxGeometry y="110" width="140" height="32" as="geometry" />
        </mxCell>
        <mxCell id="bPUMAeDiA9uqkLYjejyI-28" value="created_at" style="text;strokeColor=none;fillColor=none;align=left;verticalAlign=top;spacingLeft=4;spacingRight=4;overflow=hidden;rotatable=0;points=[[0,0.5],[1,0.5]];portConstraint=eastwest;whiteSpace=wrap;html=1;" vertex="1" parent="bPUMAeDiA9uqkLYjejyI-21">
          <mxGeometry y="142" width="140" height="32" as="geometry" />
        </mxCell>
        <mxCell id="bPUMAeDiA9uqkLYjejyI-29" value="Groups" style="swimlane;fontStyle=0;childLayout=stackLayout;horizontal=1;startSize=26;fillColor=none;horizontalStack=0;resizeParent=1;resizeParentMax=0;resizeLast=0;collapsible=1;marginBottom=0;whiteSpace=wrap;html=1;" vertex="1" parent="1">
          <mxGeometry x="355" y="170" width="140" height="130" as="geometry" />
        </mxCell>
        <mxCell id="bPUMAeDiA9uqkLYjejyI-30" value="id (PK)" style="text;strokeColor=none;fillColor=none;align=left;verticalAlign=top;spacingLeft=4;spacingRight=4;overflow=hidden;rotatable=0;points=[[0,0.5],[1,0.5]];portConstraint=eastwest;whiteSpace=wrap;html=1;" vertex="1" parent="bPUMAeDiA9uqkLYjejyI-29">
          <mxGeometry y="26" width="140" height="26" as="geometry" />
        </mxCell>
        <mxCell id="bPUMAeDiA9uqkLYjejyI-31" value="name" style="text;strokeColor=none;fillColor=none;align=left;verticalAlign=top;spacingLeft=4;spacingRight=4;overflow=hidden;rotatable=0;points=[[0,0.5],[1,0.5]];portConstraint=eastwest;whiteSpace=wrap;html=1;" vertex="1" parent="bPUMAeDiA9uqkLYjejyI-29">
          <mxGeometry y="52" width="140" height="26" as="geometry" />
        </mxCell>
        <mxCell id="bPUMAeDiA9uqkLYjejyI-32" value="created_by (FK)" style="text;strokeColor=none;fillColor=none;align=left;verticalAlign=top;spacingLeft=4;spacingRight=4;overflow=hidden;rotatable=0;points=[[0,0.5],[1,0.5]];portConstraint=eastwest;whiteSpace=wrap;html=1;" vertex="1" parent="bPUMAeDiA9uqkLYjejyI-29">
          <mxGeometry y="78" width="140" height="26" as="geometry" />
        </mxCell>
        <mxCell id="bPUMAeDiA9uqkLYjejyI-33" value="created_at" style="text;strokeColor=none;fillColor=none;align=left;verticalAlign=top;spacingLeft=4;spacingRight=4;overflow=hidden;rotatable=0;points=[[0,0.5],[1,0.5]];portConstraint=eastwest;whiteSpace=wrap;html=1;" vertex="1" parent="bPUMAeDiA9uqkLYjejyI-29">
          <mxGeometry y="104" width="140" height="26" as="geometry" />
        </mxCell>
        <mxCell id="bPUMAeDiA9uqkLYjejyI-34" value="Expenses" style="swimlane;fontStyle=0;childLayout=stackLayout;horizontal=1;startSize=26;fillColor=none;horizontalStack=0;resizeParent=1;resizeParentMax=0;resizeLast=0;collapsible=1;marginBottom=0;whiteSpace=wrap;html=1;" vertex="1" parent="1">
          <mxGeometry x="620" y="160" width="140" height="208" as="geometry" />
        </mxCell>
        <mxCell id="bPUMAeDiA9uqkLYjejyI-35" value="id (PK)" style="text;strokeColor=none;fillColor=none;align=left;verticalAlign=top;spacingLeft=4;spacingRight=4;overflow=hidden;rotatable=0;points=[[0,0.5],[1,0.5]];portConstraint=eastwest;whiteSpace=wrap;html=1;" vertex="1" parent="bPUMAeDiA9uqkLYjejyI-34">
          <mxGeometry y="26" width="140" height="26" as="geometry" />
        </mxCell>
        <mxCell id="bPUMAeDiA9uqkLYjejyI-36" value="group_id (FK)" style="text;strokeColor=none;fillColor=none;align=left;verticalAlign=top;spacingLeft=4;spacingRight=4;overflow=hidden;rotatable=0;points=[[0,0.5],[1,0.5]];portConstraint=eastwest;whiteSpace=wrap;html=1;" vertex="1" parent="bPUMAeDiA9uqkLYjejyI-34">
          <mxGeometry y="52" width="140" height="26" as="geometry" />
        </mxCell>
        <mxCell id="bPUMAeDiA9uqkLYjejyI-37" value="paid_by (FK)" style="text;strokeColor=none;fillColor=none;align=left;verticalAlign=top;spacingLeft=4;spacingRight=4;overflow=hidden;rotatable=0;points=[[0,0.5],[1,0.5]];portConstraint=eastwest;whiteSpace=wrap;html=1;" vertex="1" parent="bPUMAeDiA9uqkLYjejyI-34">
          <mxGeometry y="78" width="140" height="26" as="geometry" />
        </mxCell>
        <mxCell id="bPUMAeDiA9uqkLYjejyI-50" value="description" style="text;strokeColor=none;fillColor=none;align=left;verticalAlign=top;spacingLeft=4;spacingRight=4;overflow=hidden;rotatable=0;points=[[0,0.5],[1,0.5]];portConstraint=eastwest;whiteSpace=wrap;html=1;" vertex="1" parent="bPUMAeDiA9uqkLYjejyI-34">
          <mxGeometry y="104" width="140" height="26" as="geometry" />
        </mxCell>
        <mxCell id="bPUMAeDiA9uqkLYjejyI-51" value="amount" style="text;strokeColor=none;fillColor=none;align=left;verticalAlign=top;spacingLeft=4;spacingRight=4;overflow=hidden;rotatable=0;points=[[0,0.5],[1,0.5]];portConstraint=eastwest;whiteSpace=wrap;html=1;" vertex="1" parent="bPUMAeDiA9uqkLYjejyI-34">
          <mxGeometry y="130" width="140" height="26" as="geometry" />
        </mxCell>
        <mxCell id="bPUMAeDiA9uqkLYjejyI-52" value="currency" style="text;strokeColor=none;fillColor=none;align=left;verticalAlign=top;spacingLeft=4;spacingRight=4;overflow=hidden;rotatable=0;points=[[0,0.5],[1,0.5]];portConstraint=eastwest;whiteSpace=wrap;html=1;" vertex="1" parent="bPUMAeDiA9uqkLYjejyI-34">
          <mxGeometry y="156" width="140" height="26" as="geometry" />
        </mxCell>
        <mxCell id="bPUMAeDiA9uqkLYjejyI-53" value="created_at" style="text;strokeColor=none;fillColor=none;align=left;verticalAlign=top;spacingLeft=4;spacingRight=4;overflow=hidden;rotatable=0;points=[[0,0.5],[1,0.5]];portConstraint=eastwest;whiteSpace=wrap;html=1;" vertex="1" parent="bPUMAeDiA9uqkLYjejyI-34">
          <mxGeometry y="182" width="140" height="26" as="geometry" />
        </mxCell>
        <mxCell id="bPUMAeDiA9uqkLYjejyI-38" value="Groupmembers" style="swimlane;fontStyle=0;childLayout=stackLayout;horizontal=1;startSize=26;fillColor=none;horizontalStack=0;resizeParent=1;resizeParentMax=0;resizeLast=0;collapsible=1;marginBottom=0;whiteSpace=wrap;html=1;" vertex="1" parent="1">
          <mxGeometry x="355" y="420" width="140" height="130" as="geometry" />
        </mxCell>
        <mxCell id="bPUMAeDiA9uqkLYjejyI-39" value="id (PK)" style="text;strokeColor=none;fillColor=none;align=left;verticalAlign=top;spacingLeft=4;spacingRight=4;overflow=hidden;rotatable=0;points=[[0,0.5],[1,0.5]];portConstraint=eastwest;whiteSpace=wrap;html=1;" vertex="1" parent="bPUMAeDiA9uqkLYjejyI-38">
          <mxGeometry y="26" width="140" height="26" as="geometry" />
        </mxCell>
        <mxCell id="bPUMAeDiA9uqkLYjejyI-40" value="group_id (FK)" style="text;strokeColor=none;fillColor=none;align=left;verticalAlign=top;spacingLeft=4;spacingRight=4;overflow=hidden;rotatable=0;points=[[0,0.5],[1,0.5]];portConstraint=eastwest;whiteSpace=wrap;html=1;" vertex="1" parent="bPUMAeDiA9uqkLYjejyI-38">
          <mxGeometry y="52" width="140" height="26" as="geometry" />
        </mxCell>
        <mxCell id="bPUMAeDiA9uqkLYjejyI-41" value="user_id (FK)" style="text;strokeColor=none;fillColor=none;align=left;verticalAlign=top;spacingLeft=4;spacingRight=4;overflow=hidden;rotatable=0;points=[[0,0.5],[1,0.5]];portConstraint=eastwest;whiteSpace=wrap;html=1;" vertex="1" parent="bPUMAeDiA9uqkLYjejyI-38">
          <mxGeometry y="78" width="140" height="26" as="geometry" />
        </mxCell>
        <mxCell id="bPUMAeDiA9uqkLYjejyI-54" value="joined_at" style="text;strokeColor=none;fillColor=none;align=left;verticalAlign=top;spacingLeft=4;spacingRight=4;overflow=hidden;rotatable=0;points=[[0,0.5],[1,0.5]];portConstraint=eastwest;whiteSpace=wrap;html=1;" vertex="1" parent="bPUMAeDiA9uqkLYjejyI-38">
          <mxGeometry y="104" width="140" height="26" as="geometry" />
        </mxCell>
        <mxCell id="bPUMAeDiA9uqkLYjejyI-42" value="ExpenseSplits" style="swimlane;fontStyle=0;childLayout=stackLayout;horizontal=1;startSize=26;fillColor=none;horizontalStack=0;resizeParent=1;resizeParentMax=0;resizeLast=0;collapsible=1;marginBottom=0;whiteSpace=wrap;html=1;" vertex="1" parent="1">
          <mxGeometry x="620" y="420" width="140" height="130" as="geometry" />
        </mxCell>
        <mxCell id="bPUMAeDiA9uqkLYjejyI-43" value="id (PK)" style="text;strokeColor=none;fillColor=none;align=left;verticalAlign=top;spacingLeft=4;spacingRight=4;overflow=hidden;rotatable=0;points=[[0,0.5],[1,0.5]];portConstraint=eastwest;whiteSpace=wrap;html=1;" vertex="1" parent="bPUMAeDiA9uqkLYjejyI-42">
          <mxGeometry y="26" width="140" height="26" as="geometry" />
        </mxCell>
        <mxCell id="bPUMAeDiA9uqkLYjejyI-44" value="expense_id (FK)" style="text;strokeColor=none;fillColor=none;align=left;verticalAlign=top;spacingLeft=4;spacingRight=4;overflow=hidden;rotatable=0;points=[[0,0.5],[1,0.5]];portConstraint=eastwest;whiteSpace=wrap;html=1;" vertex="1" parent="bPUMAeDiA9uqkLYjejyI-42">
          <mxGeometry y="52" width="140" height="26" as="geometry" />
        </mxCell>
        <mxCell id="bPUMAeDiA9uqkLYjejyI-45" value="user_id (FK)" style="text;strokeColor=none;fillColor=none;align=left;verticalAlign=top;spacingLeft=4;spacingRight=4;overflow=hidden;rotatable=0;points=[[0,0.5],[1,0.5]];portConstraint=eastwest;whiteSpace=wrap;html=1;" vertex="1" parent="bPUMAeDiA9uqkLYjejyI-42">
          <mxGeometry y="78" width="140" height="26" as="geometry" />
        </mxCell>
        <mxCell id="bPUMAeDiA9uqkLYjejyI-55" value="share_amount" style="text;strokeColor=none;fillColor=none;align=left;verticalAlign=top;spacingLeft=4;spacingRight=4;overflow=hidden;rotatable=0;points=[[0,0.5],[1,0.5]];portConstraint=eastwest;whiteSpace=wrap;html=1;" vertex="1" parent="bPUMAeDiA9uqkLYjejyI-42">
          <mxGeometry y="104" width="140" height="26" as="geometry" />
        </mxCell>
        <mxCell id="bPUMAeDiA9uqkLYjejyI-46" value="Settlements" style="swimlane;fontStyle=0;childLayout=stackLayout;horizontal=1;startSize=26;fillColor=none;horizontalStack=0;resizeParent=1;resizeParentMax=0;resizeLast=0;collapsible=1;marginBottom=0;whiteSpace=wrap;html=1;" vertex="1" parent="1">
          <mxGeometry x="480" y="600" width="140" height="208" as="geometry" />
        </mxCell>
        <mxCell id="bPUMAeDiA9uqkLYjejyI-47" value="id (PK)" style="text;strokeColor=none;fillColor=none;align=left;verticalAlign=top;spacingLeft=4;spacingRight=4;overflow=hidden;rotatable=0;points=[[0,0.5],[1,0.5]];portConstraint=eastwest;whiteSpace=wrap;html=1;" vertex="1" parent="bPUMAeDiA9uqkLYjejyI-46">
          <mxGeometry y="26" width="140" height="26" as="geometry" />
        </mxCell>
        <mxCell id="bPUMAeDiA9uqkLYjejyI-48" value="from_user (FK)" style="text;strokeColor=none;fillColor=none;align=left;verticalAlign=top;spacingLeft=4;spacingRight=4;overflow=hidden;rotatable=0;points=[[0,0.5],[1,0.5]];portConstraint=eastwest;whiteSpace=wrap;html=1;" vertex="1" parent="bPUMAeDiA9uqkLYjejyI-46">
          <mxGeometry y="52" width="140" height="26" as="geometry" />
        </mxCell>
        <mxCell id="bPUMAeDiA9uqkLYjejyI-49" value="to_user (FK)" style="text;strokeColor=none;fillColor=none;align=left;verticalAlign=top;spacingLeft=4;spacingRight=4;overflow=hidden;rotatable=0;points=[[0,0.5],[1,0.5]];portConstraint=eastwest;whiteSpace=wrap;html=1;" vertex="1" parent="bPUMAeDiA9uqkLYjejyI-46">
          <mxGeometry y="78" width="140" height="26" as="geometry" />
        </mxCell>
        <mxCell id="bPUMAeDiA9uqkLYjejyI-56" value="group_id (FK)" style="text;strokeColor=none;fillColor=none;align=left;verticalAlign=top;spacingLeft=4;spacingRight=4;overflow=hidden;rotatable=0;points=[[0,0.5],[1,0.5]];portConstraint=eastwest;whiteSpace=wrap;html=1;" vertex="1" parent="bPUMAeDiA9uqkLYjejyI-46">
          <mxGeometry y="104" width="140" height="26" as="geometry" />
        </mxCell>
        <mxCell id="bPUMAeDiA9uqkLYjejyI-57" value="amount" style="text;strokeColor=none;fillColor=none;align=left;verticalAlign=top;spacingLeft=4;spacingRight=4;overflow=hidden;rotatable=0;points=[[0,0.5],[1,0.5]];portConstraint=eastwest;whiteSpace=wrap;html=1;" vertex="1" parent="bPUMAeDiA9uqkLYjejyI-46">
          <mxGeometry y="130" width="140" height="26" as="geometry" />
        </mxCell>
        <mxCell id="bPUMAeDiA9uqkLYjejyI-58" value="currency" style="text;strokeColor=none;fillColor=none;align=left;verticalAlign=top;spacingLeft=4;spacingRight=4;overflow=hidden;rotatable=0;points=[[0,0.5],[1,0.5]];portConstraint=eastwest;whiteSpace=wrap;html=1;" vertex="1" parent="bPUMAeDiA9uqkLYjejyI-46">
          <mxGeometry y="156" width="140" height="26" as="geometry" />
        </mxCell>
        <mxCell id="bPUMAeDiA9uqkLYjejyI-59" value="created_at" style="text;strokeColor=none;fillColor=none;align=left;verticalAlign=top;spacingLeft=4;spacingRight=4;overflow=hidden;rotatable=0;points=[[0,0.5],[1,0.5]];portConstraint=eastwest;whiteSpace=wrap;html=1;" vertex="1" parent="bPUMAeDiA9uqkLYjejyI-46">
          <mxGeometry y="182" width="140" height="26" as="geometry" />
        </mxCell>
        <mxCell id="bPUMAeDiA9uqkLYjejyI-61" value="" style="endArrow=classic;html=1;rounded=0;entryX=0.013;entryY=0.831;entryDx=0;entryDy=0;entryPerimeter=0;" edge="1" parent="1" target="bPUMAeDiA9uqkLYjejyI-32">
          <mxGeometry width="50" height="50" relative="1" as="geometry">
            <mxPoint x="260" y="270" as="sourcePoint" />
            <mxPoint x="380" y="263.5" as="targetPoint" />
          </mxGeometry>
        </mxCell>
        <mxCell id="bPUMAeDiA9uqkLYjejyI-62" value="" style="endArrow=classic;html=1;rounded=0;entryX=-0.026;entryY=0.908;entryDx=0;entryDy=0;entryPerimeter=0;exitX=1;exitY=0.5;exitDx=0;exitDy=0;" edge="1" parent="1" source="bPUMAeDiA9uqkLYjejyI-32" target="bPUMAeDiA9uqkLYjejyI-37">
          <mxGeometry width="50" height="50" relative="1" as="geometry">
            <mxPoint x="400" y="490" as="sourcePoint" />
            <mxPoint x="450" y="440" as="targetPoint" />
          </mxGeometry>
        </mxCell>
        <mxCell id="bPUMAeDiA9uqkLYjejyI-63" value="" style="endArrow=classic;html=1;rounded=0;entryX=-0.009;entryY=0.262;entryDx=0;entryDy=0;entryPerimeter=0;exitX=0.754;exitY=1.213;exitDx=0;exitDy=0;exitPerimeter=0;" edge="1" parent="1" source="bPUMAeDiA9uqkLYjejyI-28" target="bPUMAeDiA9uqkLYjejyI-49">
          <mxGeometry width="50" height="50" relative="1" as="geometry">
            <mxPoint x="400" y="490" as="sourcePoint" />
            <mxPoint x="450" y="440" as="targetPoint" />
          </mxGeometry>
        </mxCell>
        <mxCell id="bPUMAeDiA9uqkLYjejyI-64" value="" style="endArrow=classic;html=1;rounded=0;entryX=0.703;entryY=-0.031;entryDx=0;entryDy=0;entryPerimeter=0;exitX=0;exitY=0.5;exitDx=0;exitDy=0;" edge="1" parent="1" source="bPUMAeDiA9uqkLYjejyI-53" target="bPUMAeDiA9uqkLYjejyI-46">
          <mxGeometry width="50" height="50" relative="1" as="geometry">
            <mxPoint x="400" y="490" as="sourcePoint" />
            <mxPoint x="450" y="440" as="targetPoint" />
          </mxGeometry>
        </mxCell>
        <mxCell id="bPUMAeDiA9uqkLYjejyI-65" value="" style="endArrow=classic;html=1;rounded=0;entryX=0.349;entryY=-0.028;entryDx=0;entryDy=0;entryPerimeter=0;exitX=0.357;exitY=0.969;exitDx=0;exitDy=0;exitPerimeter=0;" edge="1" parent="1" source="bPUMAeDiA9uqkLYjejyI-53" target="bPUMAeDiA9uqkLYjejyI-42">
          <mxGeometry width="50" height="50" relative="1" as="geometry">
            <mxPoint x="400" y="490" as="sourcePoint" />
            <mxPoint x="450" y="440" as="targetPoint" />
          </mxGeometry>
        </mxCell>
        <mxCell id="bPUMAeDiA9uqkLYjejyI-66" value="" style="endArrow=classic;html=1;rounded=0;exitX=0.561;exitY=1.277;exitDx=0;exitDy=0;exitPerimeter=0;entryX=0.561;entryY=-0.025;entryDx=0;entryDy=0;entryPerimeter=0;" edge="1" parent="1" source="bPUMAeDiA9uqkLYjejyI-33" target="bPUMAeDiA9uqkLYjejyI-38">
          <mxGeometry width="50" height="50" relative="1" as="geometry">
            <mxPoint x="400" y="490" as="sourcePoint" />
            <mxPoint x="450" y="440" as="targetPoint" />
          </mxGeometry>
        </mxCell>
      </root>
    </mxGraphModel>
  </diagram>
</mxfile>
